<?xml version="1.0" encoding="UTF-8"?>
<svg version="1.1" xmlns="http://www.w3.org/2000/svg" width="244" height="240">
<path d="M0 0 C0.67958771 0.00054382 1.35917542 0.00108765 2.05935669 0.00164795 C35.89059873 0.12565004 65.71263608 13.07005285 89.8125 36.6875 C113.51338506 60.60120444 123.61510978 90.96940138 123.484375 124.15356445 C122.89438402 155.19601733 110.29197278 181.90318286 89.0625 204.375 C88.36511719 205.13683594 87.66773438 205.89867187 86.94921875 206.68359375 C67.70378383 226.98453698 37.76422583 239.83555541 9.91015625 240.7109375 C7.31524685 240.74110508 4.72008237 240.75351702 2.125 240.75 C1.44541229 240.74945618 0.76582458 240.74891235 0.06564331 240.74835205 C-33.76559873 240.62434996 -63.58763608 227.67994715 -87.6875 204.0625 C-111.38838506 180.14879556 -121.49010978 149.78059862 -121.359375 116.59643555 C-120.76938402 85.55398267 -108.16697278 58.84681714 -86.9375 36.375 C-86.24011719 35.61316406 -85.54273438 34.85132813 -84.82421875 34.06640625 C-63.17907693 11.23414513 -30.92000538 -0.04190477 0 0 Z " fill="#059669" transform="translate(120.9375,-0.37499999999999994)"/>
<path d="M0 0 C1.38892456 -0.03202515 1.38892456 -0.03202515 2.8059082 -0.06469727 C11.80316765 -0.10896323 20.84176519 1.36573211 27.9375 7.25 C32.9547146 12.80961618 33.35459455 17.27820023 33.2734375 24.57421875 C31.98461187 38.67636892 23.99608923 50.56957419 13.36328125 59.53125 C4.86303923 65.55396577 -5.01469385 68.64256977 -15.375 68.625 C-16.49322144 68.62802124 -16.49322144 68.62802124 -17.6340332 68.63110352 C-23.03906925 68.53193393 -27.15319588 67.42868434 -32.0546875 65.0859375 C-35.05319242 63.83753273 -37.04499852 64.1973832 -40.0625 65.25 C-40.92875 65.78625 -41.795 66.3225 -42.6875 66.875 C-45.0625 68.25 -45.0625 68.25 -47.375 67.9375 C-47.931875 67.710625 -48.48875 67.48375 -49.0625 67.25 C-47.71091797 66.46882813 -47.71091797 66.46882813 -46.33203125 65.671875 C-42.75510732 63.26563778 -40.80685802 60.22486646 -38.75 56.5 C-38.3475708 55.79552734 -37.9451416 55.09105469 -37.53051758 54.36523438 C-31.79841403 44.20354126 -26.40223281 33.84496921 -20.96711731 23.52227783 C-19.33711673 20.42893467 -17.69934124 17.33972855 -16.0625 14.25 C-15.56186035 13.29351562 -15.0612207 12.33703125 -14.54541016 11.3515625 C-13.89838135 10.14113281 -13.89838135 10.14113281 -13.23828125 8.90625 C-12.70521362 7.89788086 -12.70521362 7.89788086 -12.16137695 6.86914062 C-11.0625 5.25 -11.0625 5.25 -8.0625 3.25 C-13.42107528 2.92192396 -18.47396685 3.49335422 -23.75 4.4375 C-25.01199219 4.65792969 -26.27398437 4.87835938 -27.57421875 5.10546875 C-31.61658974 6.431801 -33.40868007 7.96243202 -36.0625 11.25 C-36.94239974 14.43150892 -36.94239974 14.43150892 -37.0625 17.25 C-36.4025 17.25 -35.7425 17.25 -35.0625 17.25 C-35.0625 17.91 -35.0625 18.57 -35.0625 19.25 C-38.0625 18.25 -38.0625 18.25 -39.75 16.125 C-41.40602969 12.49750639 -41.6364551 10.19594133 -41.0625 6.25 C-32.33949433 -2.9576171 -11.77415615 0.14006503 0 0 Z " fill="#07966A" transform="translate(89.0625,81.75)"/>
<path d="M0 0 C3.61121629 3.42257066 5.79448272 6.65845066 6.23828125 11.71484375 C6.57855818 26.4900261 1.27077165 38.30074677 -8.5625 49.25 C-17.48236186 57.71690013 -30.134954 62.39565158 -42.3125 62.375 C-43.43072144 62.37802124 -43.43072144 62.37802124 -44.5715332 62.38110352 C-49.97656925 62.28193393 -54.09069588 61.17868434 -58.9921875 58.8359375 C-61.99069242 57.58753273 -63.98249852 57.9473832 -67 59 C-67.86625 59.53625 -68.7325 60.0725 -69.625 60.625 C-72 62 -72 62 -74.3125 61.6875 C-74.869375 61.460625 -75.42625 61.23375 -76 61 C-75.08847168 60.45714355 -74.17694336 59.91428711 -73.23779297 59.35498047 C-69.95212634 57.15390049 -68.21149884 54.75360553 -66.1953125 51.3203125 C-65.69791061 50.47933517 -65.69791061 50.47933517 -65.19046021 49.62136841 C-60.84203404 42.17467753 -56.86626431 34.51666759 -52.875 26.875 C-52.09549147 25.38909233 -51.31554509 23.90341428 -50.53515625 22.41796875 C-50.15401672 21.6922467 -49.7728772 20.96652466 -49.38018799 20.21881104 C-48.2681769 18.10411127 -47.15323376 15.99097658 -46.03808594 13.87792969 C-44.7569299 11.44954105 -43.49762175 9.0140371 -42.25097656 6.56738281 C-41.73760742 5.57834961 -41.22423828 4.58931641 -40.6953125 3.5703125 C-40.26492676 2.72484863 -39.83454102 1.87938477 -39.39111328 1.00830078 C-37.82002112 -1.25982911 -36.5419751 -2.00855517 -34 -3 C-39.55169545 -3.11812118 -44.7247126 -2.79005143 -50.1875 -1.8125 C-50.87263672 -1.71130859 -51.55777344 -1.61011719 -52.26367188 -1.50585938 C-57.27061133 -0.61434465 -59.84381677 1.04416958 -63 5 C-63.45864339 8.21050376 -63.03071195 9.90786415 -62 13 C-65 12 -65 12 -66.6875 9.875 C-68.34352969 6.24750639 -68.5739551 3.94594133 -68 0 C-64.07468224 -4.03140743 -60.57224376 -5.08677429 -55.08984375 -5.31640625 C-54.10838379 -5.35854248 -53.12692383 -5.40067871 -52.11572266 -5.4440918 C-50.54250244 -5.50270386 -50.54250244 -5.50270386 -48.9375 -5.5625 C-47.86290527 -5.6035083 -46.78831055 -5.6445166 -45.68115234 -5.68676758 C-10.13881032 -6.96198309 -10.13881032 -6.96198309 0 0 Z " fill="#07966A" transform="translate(191,88)"/>
<path d="M0 0 C1.38892456 -0.03202515 1.38892456 -0.03202515 2.8059082 -0.06469727 C11.80316765 -0.10896323 20.84176519 1.36573211 27.9375 7.25 C32.9547146 12.80961618 33.35459455 17.27820023 33.2734375 24.57421875 C31.98461187 38.67636892 23.99608923 50.56957419 13.36328125 59.53125 C4.86303923 65.55396577 -5.01469385 68.64256977 -15.375 68.625 C-16.49322144 68.62802124 -16.49322144 68.62802124 -17.6340332 68.63110352 C-23.03906925 68.53193393 -27.15319588 67.42868434 -32.0546875 65.0859375 C-35.05319242 63.83753273 -37.04499852 64.1973832 -40.0625 65.25 C-40.92875 65.78625 -41.795 66.3225 -42.6875 66.875 C-45.0625 68.25 -45.0625 68.25 -47.375 67.9375 C-47.931875 67.710625 -48.48875 67.48375 -49.0625 67.25 C-47.71091797 66.46882813 -47.71091797 66.46882813 -46.33203125 65.671875 C-42.75510732 63.26563778 -40.80685802 60.22486646 -38.75 56.5 C-38.3475708 55.79552734 -37.9451416 55.09105469 -37.53051758 54.36523438 C-31.79841403 44.20354126 -26.40223281 33.84496921 -20.96711731 23.52227783 C-19.33711673 20.42893467 -17.69934124 17.33972855 -16.0625 14.25 C-15.56186035 13.29351562 -15.0612207 12.33703125 -14.54541016 11.3515625 C-13.89838135 10.14113281 -13.89838135 10.14113281 -13.23828125 8.90625 C-12.70521362 7.89788086 -12.70521362 7.89788086 -12.16137695 6.86914062 C-11.0625 5.25 -11.0625 5.25 -8.0625 3.25 C-13.42107528 2.92192396 -18.47396685 3.49335422 -23.75 4.4375 C-25.01199219 4.65792969 -26.27398437 4.87835938 -27.57421875 5.10546875 C-31.61658974 6.431801 -33.40868007 7.96243202 -36.0625 11.25 C-36.94239974 14.43150892 -36.94239974 14.43150892 -37.0625 17.25 C-36.4025 17.25 -35.7425 17.25 -35.0625 17.25 C-35.0625 17.91 -35.0625 18.57 -35.0625 19.25 C-38.0625 18.25 -38.0625 18.25 -39.75 16.125 C-41.40602969 12.49750639 -41.6364551 10.19594133 -41.0625 6.25 C-32.33949433 -2.9576171 -11.77415615 0.14006503 0 0 Z M-6.0625 8.25 C-7.48508357 10.42488423 -8.76367538 12.53836934 -10 14.8125 C-10.36552979 15.47145264 -10.73105957 16.13040527 -11.10766602 16.80932617 C-15.7742644 25.35482761 -20.05844684 34.10897656 -24.36499023 42.84008789 C-24.94450439 44.0130542 -25.52401855 45.18602051 -26.12109375 46.39453125 C-26.63986084 47.45003174 -27.15862793 48.50553223 -27.69311523 49.59301758 C-29.0625 52.25 -29.0625 52.25 -31.0625 55.25 C-31.56260524 58.20769177 -31.56260524 58.20769177 -31.0625 61.25 C-28.83043569 64.09780619 -27.51257001 65.09997666 -24.0625 66.25 C-13.36019727 67.20166249 -2.59885843 65.8420023 6.3125 59.4375 C7.5390536 58.39608656 8.74822804 57.33379329 9.9375 56.25 C10.52917969 55.77175781 11.12085938 55.29351562 11.73046875 54.80078125 C19.95040602 47.59699517 25.09341471 35.55687107 26.18359375 24.828125 C26.48341477 18.83170465 25.63569061 14.08774934 21.9375 9.25 C16.87875358 4.62814531 12.4249564 3.0791463 5.5625 2.875 C3.88027344 2.80152344 3.88027344 2.80152344 2.1640625 2.7265625 C-2.11945832 3.42146781 -3.36122642 4.90621243 -6.0625 8.25 Z " fill="#F1F9F6" transform="translate(89.0625,81.75)"/>
<path d="M0 0 C3.61121629 3.42257066 5.79448272 6.65845066 6.23828125 11.71484375 C6.57855818 26.4900261 1.27077165 38.30074677 -8.5625 49.25 C-17.48236186 57.71690013 -30.134954 62.39565158 -42.3125 62.375 C-43.43072144 62.37802124 -43.43072144 62.37802124 -44.5715332 62.38110352 C-49.97656925 62.28193393 -54.09069588 61.17868434 -58.9921875 58.8359375 C-61.99069242 57.58753273 -63.98249852 57.9473832 -67 59 C-67.86625 59.53625 -68.7325 60.0725 -69.625 60.625 C-72 62 -72 62 -74.3125 61.6875 C-74.869375 61.460625 -75.42625 61.23375 -76 61 C-75.08847168 60.45714355 -74.17694336 59.91428711 -73.23779297 59.35498047 C-69.95212634 57.15390049 -68.21149884 54.75360553 -66.1953125 51.3203125 C-65.69791061 50.47933517 -65.69791061 50.47933517 -65.19046021 49.62136841 C-60.84203404 42.17467753 -56.86626431 34.51666759 -52.875 26.875 C-52.09549147 25.38909233 -51.31554509 23.90341428 -50.53515625 22.41796875 C-50.15401672 21.6922467 -49.7728772 20.96652466 -49.38018799 20.21881104 C-48.2681769 18.10411127 -47.15323376 15.99097658 -46.03808594 13.87792969 C-44.7569299 11.44954105 -43.49762175 9.0140371 -42.25097656 6.56738281 C-41.73760742 5.57834961 -41.22423828 4.58931641 -40.6953125 3.5703125 C-40.26492676 2.72484863 -39.83454102 1.87938477 -39.39111328 1.00830078 C-37.82002112 -1.25982911 -36.5419751 -2.00855517 -34 -3 C-39.55169545 -3.11812118 -44.7247126 -2.79005143 -50.1875 -1.8125 C-50.87263672 -1.71130859 -51.55777344 -1.61011719 -52.26367188 -1.50585938 C-57.27061133 -0.61434465 -59.84381677 1.04416958 -63 5 C-63.45864339 8.21050376 -63.03071195 9.90786415 -62 13 C-65 12 -65 12 -66.6875 9.875 C-68.34352969 6.24750639 -68.5739551 3.94594133 -68 0 C-64.07468224 -4.03140743 -60.57224376 -5.08677429 -55.08984375 -5.31640625 C-54.10838379 -5.35854248 -53.12692383 -5.40067871 -52.11572266 -5.4440918 C-50.54250244 -5.50270386 -50.54250244 -5.50270386 -48.9375 -5.5625 C-47.86290527 -5.6035083 -46.78831055 -5.6445166 -45.68115234 -5.68676758 C-10.13881032 -6.96198309 -10.13881032 -6.96198309 0 0 Z M-33 2 C-39.34335038 11.58696047 -44.25899151 22.25696818 -49.45346069 32.50253296 C-50.19106831 33.95572612 -50.93163754 35.40741994 -51.67520142 36.85757446 C-52.73269854 38.92470627 -53.77628054 40.9983025 -54.81640625 43.07421875 C-55.13784607 43.69767181 -55.45928589 44.32112488 -55.79046631 44.96347046 C-57.50772156 48.43315165 -58.54902514 51.11819048 -58 55 C-55.7522146 57.79035429 -54.42269984 58.85910005 -51 60 C-39.61259624 60.99889507 -29.69441344 59.87709345 -20.1796875 52.9453125 C-10.30655907 44.42789723 -1.98337663 33.11972037 -0.796875 19.703125 C-0.68894856 14.05497466 -0.8333105 8.84866884 -4 4 C-9.34369791 -1.01586369 -13.48098655 -3.17539859 -20.8125 -3.375 C-22.03582031 -3.42398438 -23.25914062 -3.47296875 -24.51953125 -3.5234375 C-28.99241804 -2.85074746 -30.21006108 -1.49932612 -33 2 Z " fill="#F0F8F6" transform="translate(191,88)"/>
<path d="M0 0 C0.33 0.66 0.66 1.32 1 2 C-5.2688806 4.58764605 -11.16388372 5.30103658 -17.875 5.3125 C-18.61226318 5.31765625 -19.34952637 5.3228125 -20.10913086 5.328125 C-23.87758846 5.27981697 -26.80424401 5.0998292 -30 3 C-26.55735183 1.92158009 -23.52618377 1.99418528 -19.9375 2.125 C-14.24356629 2.19569218 -9.53582626 1.33464262 -4.14453125 -0.44140625 C-2 -1 -2 -1 0 0 Z " fill="#D1EBE3" transform="translate(91,145)"/>
</svg>
